<?xml version="1.0" encoding="utf-8"?>
<!-- Generator: Adobe Illustrator 19.0.0, SVG Export Plug-In . SVG Version: 6.00 Build 0)  -->
<svg version="1.1" id="Layer_1" xmlns="http://www.w3.org/2000/svg" xmlns:xlink="http://www.w3.org/1999/xlink" x="0px" y="0px"
	 width="90px" height="20px" viewBox="0 0 180 40" style="enable-background:new 0 0 180 40;" xml:space="preserve">
<style type="text/css">
	.st0{fill:none;}
</style>
<path d="M180,20.4c0-8.2-1.5-18.1-14.5-18.1c-10.9,0-14.4,6.2-14.4,12.8c0,5.3,1.9,10.8,9.1,10.8c3.2,0,6.5-1.3,6.6-5.4
	c-0.1,0.1-0.8,0.9-2.4,0.9c-3.1,0-3.2-3.8-3.2-6.7c0-2.9,0.4-6.7,4.3-6.7c3.4,0,4.5,2.4,4.5,11.5c0,10.8-3,14.9-10.3,14.9
	c-5.4,0-7.3-1.9-7.3-1.9s0.6,7.4,11.4,7.4C167.8,39.9,180,39.2,180,20.4 M136.5,30.3c0,0-0.8,1.2-3.2,1.2c-2,0-3.6-1.3-3.6-4.2
	c0-4.2,3.2-4.3,4.9-4.3c1.6,0,2,0.2,2,0.2V30.3z M147.6,34.8c-0.9-1.7-1.2-3.5-1.2-7.2c0-4.3,0.1-5,0.1-8.8c0-3.4-0.1-6.5-2-8.7
	c-1.4-1.7-4.2-3.3-11-3.3c-7.7,0-11.1,1.6-11.1,1.6s0.2,1.2,0.2,3.7c0,2.3-0.2,3.8-0.2,3.8c2-2.4,5.3-3.3,7.9-3.3
	c2.9,0,4.3,0.6,5.2,1.4c1,1,1,2.5,1,4v1c0,0-1.9-0.4-4.8-0.4c-4.3,0-12.1,0.4-12.1,9.5c0,4.1,1.9,9,8.9,9c3.3,0,7.1-0.7,8.4-6.2
	l-0.3,6.1l11.4-1.3L147.6,34.8z M115.9,35.7c-0.8-1.5-1.3-1.9-1.3-12.9v-2c0-5.9-0.2-8.3-1.4-10.5c-1.3-2.4-3.8-3.6-7.7-3.6
	c-5,0-7.9,2.2-9,7.5l0.3-7.3L84.9,8.1L85.3,9c0.8,1.5,1.3,2.9,1.3,11.6v2.2c0,11-0.5,11.4-1.3,12.9l-0.5,0.9c0,0,2-0.1,6.9-0.1
	c4.8,0,6.8,0.1,6.8,0.1l-0.5-0.9c-0.8-1.5-1.3-1.9-1.3-12.9v-8.1c0,0,0.6-1.8,3.6-1.8c2,0,2.8,0.9,3.2,1.6c0.5,0.9,0.7,2.3,0.7,8.4
	c0,11-0.5,11.4-1.3,12.8l-0.5,0.9c0,0,2-0.1,6.9-0.1c4.8,0,6.8,0.1,6.8,0.1L115.9,35.7z M71.8,15.4c0,3.2-1.5,4.1-4.4,4.1
	c-2.1,0-2.8-0.3-2.8-0.3c0-4.3,0.1-7.7,3.9-7.7C71.2,11.5,71.8,13.6,71.8,15.4 M81.5,15.6c0-9.3-10.5-9-13.3-9
	c-4.8,0-13.7,1.7-13.7,15.7c0,8.3,3.7,14.8,14.7,14.8c8.7,0,12-4.6,12-8.9c-0.2,0.3-1.8,2.9-8.6,2.9c-6.8,0-7.6-4.8-7.6-6.9
	c0,0,1.6,0.5,4.7,0.5C80.4,24.6,81.5,19.2,81.5,15.6 M45.1,30.9c-5.7,0-6.8-4.4-6.8-9.3c0-4.5,1.1-8.9,6-8.9c2.3,0,4.2,0.6,7.1,5.5
	c0,0-0.1-2.4-0.1-5.4c0-2.8,0.1-4.2,0.1-4.2s-2.4-2-9-2c-9.6,0-14.7,5.5-14.7,15.8c0,8,3.5,14.6,13.5,14.6c8.1,0,10.7-5.1,10.7-9.1
	C51.7,28.2,50.1,30.9,45.1,30.9 M24.3,26.1c0-5.1-2.8-7.9-6.9-10.2l-3.9-2.1c-2.1-1.2-4-2-4-4.2c0-2.5,2-3.4,5.5-3.4
	c3.1,0,6.6,1.5,8.8,5.1c0,0-0.1-2-0.1-5.4c0-3.1,0.1-4.3,0.1-4.3s-3.1-1.5-9.7-1.5C6.3,0.1,0,2.7,0,11.3c0,5.4,3,8.2,7.2,10.5
	l3.4,1.9c2.7,1.5,4.2,2.1,4.2,4.2c0,1.8-1.2,3-5,3c-4,0-6.9-2.1-8.8-5c0,0,0.1,1.8,0.1,5.1c0,3.2-0.1,4.4-0.1,4.4s3.4,1.5,9.7,1.5
	C19.3,36.8,24.3,33.7,24.3,26.1"/>
<rect id="XMLID_9_" class="st0" width="180" height="40"/>
</svg>
